<?xml version="1.0" encoding="utf-8"?>
<svg xmlns="http://www.w3.org/2000/svg" viewBox="0 0 115.501 131.645" xmlns:bx="https://boxy-svg.com" width="115.501px" height="131.645px"><defs><bx:export><bx:file format="svg"/></bx:export></defs><g transform="matrix(0.017695, 0, 0, -0.017695, -33.385738, 154.745056)" fill="#000000" stroke="none" style=""><path d="M4197 8414 c-1 -1 -425 -4 -942 -8 -516 -3 -942 -9 -946 -14 -3 -4 -4 -29 0 -56 l6 -49 98 -60 c174 -107 300 -233 361 -362 56 -117 54 -58 57 -1875 2 -1325 0 -1688 -10 -1735 -42 -199 -182 -355 -428 -479 l-73 -36 0 -53 c0 -28 3 -62 6 -74 l6 -23 1030 0 1029 0 -3 -587 c-3 -575 -4 -589 -25 -653 -60 -176 -209 -301 -400 -335 -43 -8 -93 -14 -110 -15 l-33 0 0 -85 0 -85 153 0 c83 0 522 -3 975 -6 l822 -5 0 91 0 90 -32 0 c-18 1 -68 7 -111 15 -199 35 -338 159 -393 351 -15 52 -18 130 -22 642 l-4 582 124 0 123 -1 205 -272 c113 -149 321 -424 463 -612 141 -187 350 -463 463 -613 l206 -272 559 0 559 0 0 85 0 85 -37 17 c-21 9 -85 38 -143 65 -306 144 -510 347 -966 958 -246 329 -534 720 -534 725 0 2 53 29 117 60 401 190 647 481 735 867 28 123 30 355 4 473 -68 309 -313 606 -656 793 -78 42 -264 121 -337 143 -24 7 -43 16 -43 21 0 5 19 17 43 26 86 33 256 123 318 168 207 152 345 348 400 565 26 108 37 338 20 445 -58 356 -346 691 -761 887 -240 114 -480 170 -845 198 -112 8 -1018 20 -1028 13z m948 -523 c203 -37 335 -92 470 -193 131 -99 236 -255 270 -401 19 -79 19 -244 1 -339 -32 -166 -100 -292 -221 -407 -89 -85 -194 -139 -341 -176 -226 -57 -246 -58 -971 -62 l-673 -5 0 770 0 770 58 6 c91 10 654 52 797 60 173 9 500 -3 610 -23z m-100 -2082 c317 -11 513 -51 700 -144 187 -93 305 -208 390 -380 65 -132 80 -196 79 -345 -2 -177 -44 -335 -123 -456 -45 -71 -167 -186 -245 -233 -127 -76 -323 -129 -548 -147 l-88 -7 0 667 0 666 -410 0 -410 0 -2 -667 -3 -666 -350 0 -350 0 -3 862 -2 862 582 -2 c321 -2 673 -6 783 -10z" style="fill-opacity: 0.9; fill: rgb(255, 255, 255);"/></g></svg>