<?xml version="1.0" encoding="UTF-8"?>
<svg xmlns="http://www.w3.org/2000/svg" xmlns:xlink="http://www.w3.org/1999/xlink" width="60px" height="68px" viewBox="0 0 60 68" version="1.1">
<g id="surface1">
<path style=" stroke:none;fill-rule:nonzero;fill:rgb(100%,100%,100%);fill-opacity:0.898039;" d="M 21.144531 3.019531 C 21.136719 3.027344 17.253906 3.054688 12.523438 3.089844 C 7.800781 3.117188 3.902344 3.171875 3.863281 3.21875 C 3.835938 3.253906 3.828125 3.484375 3.863281 3.730469 L 3.917969 4.175781 L 4.816406 4.722656 C 6.410156 5.699219 7.5625 6.847656 8.121094 8.023438 C 8.632812 9.089844 8.613281 8.550781 8.640625 25.113281 C 8.660156 37.191406 8.640625 40.5 8.550781 40.929688 C 8.167969 42.746094 6.886719 44.167969 4.632812 45.296875 L 3.964844 45.625 L 3.964844 46.109375 C 3.964844 46.363281 3.992188 46.671875 4.019531 46.78125 L 4.074219 46.992188 L 22.921875 46.992188 L 22.894531 52.34375 C 22.867188 57.585938 22.855469 57.710938 22.664062 58.296875 C 22.113281 59.898438 20.75 61.039062 19.003906 61.347656 C 18.609375 61.421875 18.152344 61.476562 17.996094 61.484375 L 17.695312 61.484375 L 17.695312 63.035156 L 19.09375 63.035156 C 19.855469 63.035156 23.871094 63.0625 28.019531 63.089844 L 35.542969 63.136719 L 35.542969 61.484375 L 35.25 61.484375 C 35.085938 61.476562 34.625 61.421875 34.234375 61.347656 C 32.410156 61.03125 31.140625 59.898438 30.636719 58.148438 C 30.5 57.675781 30.472656 56.964844 30.433594 52.296875 L 30.398438 46.992188 L 31.53125 46.992188 L 32.660156 47 L 34.535156 49.480469 C 35.570312 50.839844 37.472656 53.34375 38.773438 55.058594 C 40.0625 56.765625 41.976562 59.28125 43.011719 60.648438 L 44.894531 63.125 L 55.128906 63.125 L 55.128906 61.578125 L 54.789062 61.421875 C 54.597656 61.339844 54.011719 61.074219 53.480469 60.828125 C 50.679688 59.515625 48.8125 57.667969 44.640625 52.097656 C 42.386719 49.097656 39.753906 45.535156 39.753906 45.488281 C 39.753906 45.46875 40.238281 45.222656 40.824219 44.941406 C 44.492188 43.210938 46.746094 40.554688 47.550781 37.039062 C 47.804688 35.917969 47.824219 33.800781 47.585938 32.726562 C 46.964844 29.910156 44.722656 27.203125 41.582031 25.496094 C 40.867188 25.113281 39.167969 24.394531 38.5 24.195312 C 38.277344 24.128906 38.105469 24.046875 38.105469 24.003906 C 38.105469 23.957031 38.277344 23.847656 38.5 23.765625 C 39.285156 23.464844 40.839844 22.644531 41.410156 22.234375 C 43.304688 20.847656 44.566406 19.0625 45.070312 17.082031 C 45.308594 16.097656 45.410156 14.003906 45.253906 13.027344 C 44.722656 9.78125 42.085938 6.726562 38.289062 4.941406 C 36.089844 3.902344 33.894531 3.390625 30.554688 3.136719 C 29.527344 3.0625 21.238281 2.953125 21.144531 3.019531 Z M 29.820312 7.785156 C 31.679688 8.125 32.886719 8.625 34.125 9.546875 C 35.324219 10.449219 36.285156 11.871094 36.59375 13.199219 C 36.769531 13.921875 36.769531 15.425781 36.605469 16.289062 C 36.3125 17.804688 35.6875 18.953125 34.582031 20 C 33.765625 20.777344 32.804688 21.269531 31.460938 21.605469 C 29.390625 22.125 29.207031 22.132812 22.574219 22.171875 L 16.414062 22.214844 L 16.414062 8.179688 L 16.945312 8.125 C 17.777344 8.03125 22.929688 7.648438 24.238281 7.578125 C 25.820312 7.496094 28.816406 7.605469 29.820312 7.785156 Z M 28.90625 26.765625 C 31.808594 26.863281 33.601562 27.230469 35.3125 28.078125 C 37.023438 28.925781 38.105469 29.972656 38.882812 31.542969 C 39.476562 32.746094 39.613281 33.328125 39.605469 34.6875 C 39.585938 36.300781 39.203125 37.738281 38.480469 38.84375 C 38.066406 39.488281 36.953125 40.539062 36.238281 40.964844 C 35.074219 41.660156 33.28125 42.144531 31.222656 42.308594 L 30.417969 42.371094 L 30.417969 30.21875 L 22.910156 30.21875 L 22.894531 36.300781 L 22.867188 42.371094 L 16.457031 42.371094 L 16.429688 34.511719 L 16.414062 26.65625 L 21.738281 26.671875 C 24.679688 26.691406 27.898438 26.726562 28.90625 26.765625 Z M 28.90625 26.765625 "/>
</g>
</svg>
